<svg width="64" height="64" viewBox="0 0 64 64" fill="none" xmlns="http://www.w3.org/2000/svg">
<path d="M39.6316 16.9633H46.2876C46.627 16.9633 46.9526 16.8285 47.1927 16.5884C47.4327 16.3484 47.5676 16.0228 47.5676 15.6833C47.5676 15.3438 47.4327 15.0183 47.1927 14.7782C46.9526 14.5382 46.627 14.4033 46.2876 14.4033H39.6316C39.2921 14.4033 38.9665 14.5382 38.7265 14.7782C38.4864 15.0183 38.3516 15.3438 38.3516 15.6833C38.3516 16.0228 38.4864 16.3484 38.7265 16.5884C38.9665 16.8285 39.2921 16.9633 39.6316 16.9633Z" fill="white"/>
<path d="M39.6316 29.6999H46.2876C46.627 29.6999 46.9526 29.565 47.1927 29.325C47.4327 29.0849 47.5676 28.7594 47.5676 28.4199C47.5676 28.0804 47.4327 27.7548 47.1927 27.5148C46.9526 27.2748 46.627 27.1399 46.2876 27.1399H39.6316C39.2921 27.1399 38.9665 27.2748 38.7265 27.5148C38.4864 27.7548 38.3516 28.0804 38.3516 28.4199C38.3516 28.7594 38.4864 29.0849 38.7265 29.325C38.9665 29.565 39.2921 29.6999 39.6316 29.6999Z" fill="white"/>
<path d="M39.6316 42.4365H46.2876C46.627 42.4365 46.9526 42.3016 47.1927 42.0616C47.4327 41.8215 47.5676 41.4959 47.5676 41.1565C47.5676 40.817 47.4327 40.4914 47.1927 40.2514C46.9526 40.0113 46.627 39.8765 46.2876 39.8765H39.6316C39.2921 39.8765 38.9665 40.0113 38.7265 40.2514C38.4864 40.4914 38.3516 40.817 38.3516 41.1565C38.3516 41.4959 38.4864 41.8215 38.7265 42.0616C38.9665 42.3016 39.2921 42.4365 39.6316 42.4365Z" fill="white"/>
<path d="M60.7999 10.9645H55.2134V5.21669C55.2134 4.87721 55.0785 4.55164 54.8385 4.31159C54.5984 4.07155 54.2728 3.93669 53.9334 3.93669H35.5948C34.9273 3.93706 34.2671 4.07619 33.6562 4.34523C33.0453 4.61428 32.4969 5.00737 32.046 5.49957C31.5803 5.0013 31.0162 4.60511 30.3895 4.33609C29.7628 4.06707 29.087 3.93107 28.405 3.93669H10.1471C9.80764 3.93669 9.48207 4.07155 9.24202 4.31159C9.00198 4.55164 8.86712 4.87721 8.86712 5.21669V10.9645H3.19992C2.86044 10.9645 2.53487 11.0994 2.29483 11.3394C2.05478 11.5795 1.91992 11.9051 1.91992 12.2445V58.9383C1.91992 59.2778 2.05478 59.6033 2.29483 59.8434C2.53487 60.0834 2.86044 60.2183 3.19992 60.2183H60.7999C61.1394 60.2183 61.465 60.0834 61.705 59.8434C61.9451 59.6033 62.0799 59.2778 62.0799 58.9383V12.2445C62.0799 11.9051 61.9451 11.5795 61.705 11.3394C61.465 11.0994 61.1394 10.9645 60.7999 10.9645ZM59.5199 13.5245V32.5121H55.2134V13.5245H59.5199ZM35.5948 6.49669H52.6534V50.3879H33.3202V8.77125C33.317 8.47165 33.3736 8.17441 33.4867 7.89698C33.5999 7.61954 33.7673 7.3675 33.9792 7.15564C34.1911 6.94377 34.4431 6.77635 34.7205 6.6632C34.998 6.55004 35.2952 6.49343 35.5948 6.49669ZM11.4271 6.49669H28.405C28.7108 6.4845 29.0159 6.53438 29.3018 6.64334C29.5877 6.75229 29.8486 6.91806 30.0687 7.13063C30.2889 7.34321 30.4636 7.59817 30.5825 7.88015C30.7013 8.16212 30.7618 8.46526 30.7602 8.77125V50.3879H11.4271V6.49669ZM8.86712 13.5245V32.5121H4.47992V13.5245H8.86712ZM4.47992 57.6583V35.0721H8.86712V51.6679C8.86712 52.0074 9.00198 52.3329 9.24202 52.573C9.48207 52.813 9.80764 52.9479 10.1471 52.9479H53.9334C54.2728 52.9479 54.5984 52.813 54.8385 52.573C55.0785 52.3329 55.2134 52.0074 55.2134 51.6679V35.0721H59.5199V57.6583H4.47992Z" fill="white"/>
<path d="M16.4314 26.2894H25.7568C26.0963 26.2894 26.4219 26.1545 26.6619 25.9145C26.9019 25.6745 27.0368 25.3489 27.0368 25.0094V15.6833C27.0368 15.3438 26.9019 15.0183 26.6619 14.7782C26.4219 14.5382 26.0963 14.4033 25.7568 14.4033H16.4314C16.0919 14.4033 15.7663 14.5382 15.5263 14.7782C15.2862 15.0183 15.1514 15.3438 15.1514 15.6833V25.0094C15.1514 25.3489 15.2862 25.6745 15.5263 25.9145C15.7663 26.1545 16.0919 26.2894 16.4314 26.2894ZM17.7114 16.9633H24.4768V23.7294H17.7114V16.9633Z" fill="white"/>
</svg>
