<svg width="64" height="64" viewBox="0 0 64 64" fill="none" xmlns="http://www.w3.org/2000/svg">
<g clip-path="url(#clip0_79_139)">
<path d="M17.1208 40.2794C17.7184 39.9347 17.923 39.1695 17.5783 38.5719C17.2331 37.9747 16.4684 37.7696 15.8708 38.1143C15.2731 38.4596 15.068 39.2247 15.4133 39.8219C15.758 40.4195 16.5231 40.6246 17.1208 40.2794Z" fill="white"/>
<path d="M11.998 48.9067L18.2929 59.8105C19.6513 62.166 22.707 63.0381 25.1235 61.6411C27.5146 60.2593 28.3364 57.2041 26.9531 54.811L23.2031 48.3149L26.4507 46.4399C27.0483 46.0942 27.2534 45.3301 26.9082 44.7324L25.2827 41.917C25.4765 41.8794 26.751 41.6294 49.2251 37.2207C52.0034 37.0698 53.6679 34.0312 52.2646 31.6021L48.1103 24.4067L50.7651 20.3857C51.0259 19.9902 51.0415 19.4819 50.8047 19.0718L48.3047 14.7417C48.0678 14.3315 47.6181 14.0913 47.1469 14.1191L42.3379 14.4077L37.7261 6.41943C37.0581 5.26221 35.8613 4.56152 34.5254 4.54492C34.5093 4.54443 34.4936 4.54443 34.4775 4.54443C33.1865 4.54443 32.0146 5.18701 31.3203 6.27344L14.9912 27.0752L4.37547 33.2041C0.200175 35.6138 -1.24611 40.9702 1.17283 45.1567C3.38279 48.9849 8.04197 50.4907 11.998 48.9067ZM24.7886 56.0615C25.479 57.2559 25.0703 58.7842 23.8725 59.4761C22.6709 60.1709 21.1406 59.7441 20.458 58.561L14.208 47.7344L18.5381 45.2344C25.7715 57.7646 24.6723 55.8608 24.7886 56.0615ZM21.9531 46.1494L20.7031 43.9844L22.8681 42.7344L24.1181 44.8994L21.9531 46.1494ZM46.5259 16.6606L48.2534 19.6528L46.7129 21.9858L43.7353 16.8281L46.5259 16.6606ZM33.4111 7.64404C33.7466 7.09521 34.2788 7.03857 34.4946 7.04443C34.708 7.04688 35.2397 7.11328 35.5605 7.66895L50.0996 32.8521C50.5732 33.6719 49.9975 34.7026 49.0478 34.7261C48.8774 34.73 48.7988 34.7607 48.3623 34.8423L32.9829 8.2041C33.3056 7.78906 33.3471 7.74902 33.4111 7.64404ZM31.3193 10.3232L45.769 35.3511L23.9614 39.6284L17.3305 28.1436L31.3193 10.3232ZM3.33787 43.9067C2.78904 42.957 2.499 41.8789 2.499 40.7881C2.499 38.5586 3.69725 36.4824 5.62547 35.3691L15.3681 29.7441L21.6181 40.5693L11.8755 46.1948C8.8906 47.9175 5.06102 46.8911 3.33787 43.9067Z" fill="white"/>
<path d="M13.2482 41.0717C12.903 40.474 12.1384 40.269 11.5407 40.6142L9.37566 41.8642C8.77898 42.2089 8.01287 42.0033 7.66814 41.4067C7.32292 40.809 6.55828 40.6039 5.96062 40.9491C5.36296 41.2944 5.15789 42.059 5.5031 42.6567C6.53191 44.4389 8.82683 45.0673 10.6257 44.0292L12.7907 42.7792C13.3884 42.434 13.5934 41.6698 13.2482 41.0717Z" fill="white"/>
<path d="M62.1424 7.2182L55.1771 11.0942C54.5741 11.4301 54.3568 12.1913 54.6927 12.7944C55.0277 13.3969 55.7884 13.6152 56.3929 13.2787L63.3577 9.40277C63.9613 9.06683 64.1781 8.3056 63.8421 7.70257C63.5067 7.09906 62.7454 6.88226 62.1424 7.2182Z" fill="white"/>
<path d="M61.4115 20.1645L56.582 18.8706C55.915 18.6919 55.2294 19.0874 55.0507 19.7544C54.872 20.4214 55.268 21.1064 55.935 21.2851L60.7651 22.5791C61.436 22.7592 62.1181 22.3574 62.2958 21.6953C62.4745 21.0283 62.0785 20.3427 61.4115 20.1645Z" fill="white"/>
<path d="M49.2754 2.67672L47.9799 7.5068C47.8012 8.17379 48.1967 8.85885 48.8637 9.03805C49.5302 9.21627 50.2158 8.82174 50.395 8.15426L51.6899 3.32418C51.8686 2.65719 51.4731 1.97164 50.8061 1.79293C50.1396 1.61422 49.4541 2.00973 49.2754 2.67672Z" fill="white"/>
</g>
<defs>
<clipPath id="clip0_79_139">
<rect width="64" height="64" fill="white"/>
</clipPath>
</defs>
</svg>
