<svg width="65" height="64" viewBox="0 0 65 64" fill="none" xmlns="http://www.w3.org/2000/svg">
<g clip-path="url(#clip0_79_110)">
<path d="M56.3329 43.221C56.3256 43.2227 56.3182 43.2244 56.3108 43.2261L45.9367 45.7311C45.7581 44.9697 45.3426 44.2915 44.7356 43.7843C44.0139 43.1811 43.1072 42.8961 42.1827 42.9814C41.5709 43.0379 39.5042 43.2669 37.3163 43.5094C35.2448 43.739 33.1028 43.9762 32.5159 44.0305C31.302 44.1429 29.6214 43.8901 27.842 43.6224C24.7527 43.158 21.2511 42.6315 17.7262 43.4259C13.5309 44.3715 10.3261 46.9693 7.924 51.3766L3.89826 58.9109C3.57289 59.5198 3.80276 60.2772 4.41164 60.6025C4.59914 60.7028 4.80076 60.7503 4.99963 60.7503C5.44613 60.7503 5.87813 60.5104 6.10326 60.0892L10.1241 52.5639C14.6968 44.1738 21.4832 45.1941 27.4704 46.0946C29.4038 46.3852 31.2299 46.6598 32.746 46.5198C33.3556 46.4635 35.4133 46.2355 37.5918 45.9941C39.6722 45.7635 41.8235 45.5251 42.4127 45.4707C42.6697 45.4471 42.9254 45.5292 43.1327 45.7025C43.3627 45.8947 43.5041 46.1695 43.5306 46.4761C43.5475 46.67 43.5921 47.185 42.2086 47.784C39.153 49.107 35.9081 50.2161 33.3059 50.8271C32.6339 50.9849 32.2169 51.6577 32.3747 52.3297C32.5325 53.0017 33.2055 53.4193 33.8773 53.2608C36.6175 52.6174 40.0162 51.4573 43.2019 50.0781C44.3119 49.5975 45.011 49.0185 45.4367 48.4233L56.8859 45.6588C57.8307 45.4517 58.51 45.7263 58.7043 46.3948C58.8593 46.9286 58.6478 47.6001 57.8265 47.8993C56.9201 48.217 54.7586 49.1017 52.0239 50.2209C48.4015 51.7037 43.893 53.5492 40.3032 54.8952C35.921 56.5383 34.6835 56.7356 30.1157 56.5176L22.8528 56.1712C22.4038 56.1483 21.9754 56.3724 21.7353 56.7539L20.4263 58.8342C20.0587 59.4185 20.2343 60.1903 20.8186 60.5579C21.4028 60.9255 22.1746 60.7499 22.5423 60.1657L23.4627 58.703L29.9965 59.0145C34.9095 59.2494 36.4773 58.9997 41.1809 57.2359C44.8055 55.8769 49.333 54.0238 52.9709 52.5347C55.5718 51.4701 57.8178 50.5508 58.6587 50.2567L58.6709 50.2523C60.9034 49.4456 61.5852 47.3501 61.1049 45.6973C60.6398 44.0971 58.9479 42.64 56.3329 43.221Z" fill="white"/>
<path d="M18.1255 12.1252C13.3007 12.1252 9.37549 16.0504 9.37549 20.8751C9.37549 25.6998 13.3007 29.6251 18.1255 29.6251C22.9502 29.6251 26.8754 25.6998 26.8754 20.8751C26.8754 16.0504 22.9502 12.1252 18.1255 12.1252ZM18.1255 27.1251C14.6792 27.1251 11.8755 24.3213 11.8755 20.8751C11.8755 17.429 14.6792 14.6252 18.1255 14.6252C21.5717 14.6252 24.3754 17.429 24.3754 20.8751C24.3753 24.3213 21.5717 27.1251 18.1255 27.1251Z" fill="white"/>
<path d="M47.0006 22.1253H55.9324C56.4715 23.9304 58.1473 25.2502 60.1254 25.2502C62.5377 25.2502 64.5004 23.2875 64.5004 20.8752C64.5004 18.4628 62.5377 16.5002 60.1254 16.5002C58.1471 16.5002 56.4714 17.8201 55.9323 19.6253H47.0004V8.8751H55.9323C56.4714 10.6803 58.1471 12.0001 60.1254 12.0001C62.5377 12.0001 64.5004 10.0375 64.5004 7.62511C64.5004 5.21274 62.5377 3.25012 60.1254 3.25012C58.1473 3.25012 56.4714 4.56987 55.9323 6.37511H45.7504C45.0601 6.37511 44.5004 6.93486 44.5004 7.62511V19.6253H35.7505V18.0627C35.7505 17.4092 35.2472 16.8661 34.5956 16.8163L32.5236 16.6581C32.221 15.6226 31.8074 14.625 31.2875 13.677L32.6416 12.0988C33.0671 11.603 33.039 10.863 32.5769 10.401L28.5994 6.42361C28.1373 5.96149 27.3973 5.93324 26.9015 6.35886L25.3234 7.71311C24.3755 7.19323 23.378 6.77961 22.3423 6.47699L22.1842 4.40487C22.1344 3.75325 21.5912 3.25 20.9378 3.25H15.3128C14.6593 3.25 14.1162 3.75325 14.0664 4.40487L13.9082 6.47699C12.8726 6.77961 11.8753 7.19311 10.9272 7.71311L9.34945 6.35899C8.85371 5.93349 8.11371 5.96174 7.65159 6.42374L3.6741 10.4011C3.21198 10.8631 3.18385 11.6031 3.60935 12.099L4.96347 13.6771C4.4436 14.625 4.02997 15.6223 3.72723 16.6582L1.65536 16.8163C1.00374 16.8661 0.500488 17.4092 0.500488 18.0627V23.6878C0.500488 24.3413 1.00374 24.8844 1.65536 24.9342L3.7276 25.0924C4.03022 26.128 4.44372 27.1254 4.9636 28.0735L3.60948 29.6515C3.18398 30.1475 3.2121 30.8875 3.67423 31.3495L7.65171 35.327C8.11383 35.7889 8.85383 35.8174 9.34958 35.3917L10.9274 34.0375C11.8754 34.5574 12.8728 34.971 13.9086 35.2737L14.0667 37.3455C14.1164 37.9971 14.6597 38.5004 15.3131 38.5004H20.938C21.5915 38.5004 22.1347 37.9971 22.1844 37.3455L22.3425 35.2734C23.3781 34.9708 24.3755 34.5573 25.3236 34.0373L26.9016 35.3916C27.3975 35.8172 28.1376 35.789 28.5996 35.3269L32.5771 31.3494C33.0391 30.8873 33.0674 30.1474 32.6419 29.6514L31.2877 28.0735C31.8076 27.1255 32.2212 26.1282 32.524 25.0923L34.5959 24.934C35.2474 24.8844 35.7507 24.3412 35.7507 23.6877V22.1252H44.5007V34.8555C44.5007 35.5457 45.0603 36.1055 45.7507 36.1055H56.225C56.9489 37.5255 58.4255 38.5002 60.1256 38.5002C62.538 38.5002 64.5006 36.5376 64.5006 34.1253C64.5006 31.7129 62.538 29.7503 60.1256 29.7503C57.8891 29.7503 56.0393 31.4373 55.7814 33.6055H47.0007L47.0006 22.1253ZM60.1255 19.0002C61.1594 19.0002 62.0005 19.8413 62.0005 20.8752C62.0005 21.9091 61.1594 22.7502 60.1255 22.7502C59.0916 22.7502 58.2505 21.9091 58.2505 20.8752C58.2505 19.8413 59.0916 19.0002 60.1255 19.0002ZM60.1255 5.75011C61.1594 5.75011 62.0005 6.59124 62.0005 7.62511C62.0005 8.65898 61.1594 9.5001 60.1255 9.5001C59.0916 9.5001 58.2505 8.65898 58.2505 7.62511C58.2505 6.59124 59.0916 5.75011 60.1255 5.75011ZM33.2507 22.5295L31.4434 22.6675C30.896 22.7093 30.44 23.1032 30.3191 23.6387C30.0064 25.024 29.4619 26.3372 28.7006 27.5419C28.4074 28.006 28.4513 28.607 28.8088 29.0236L29.9905 30.4006L27.651 32.7403L26.2739 31.5584C25.8573 31.201 25.2563 31.1569 24.7921 31.4503C23.5871 32.2116 22.274 32.756 20.8893 33.0684C20.3538 33.1893 19.9598 33.6453 19.9179 34.1925L19.7799 36.0005H16.4713L16.3333 34.193C16.2916 33.6456 15.8976 33.1896 15.3621 33.0688C13.9769 32.7561 12.6638 32.2118 11.4591 31.4504C10.9951 31.1571 10.3939 31.201 9.97733 31.5585L8.60021 32.7403L6.26072 30.4006L7.44246 29.0235C7.79996 28.6069 7.84383 28.0058 7.55059 27.5418C6.78921 26.3368 6.24484 25.0237 5.93247 23.639C5.81172 23.1035 5.35559 22.7094 4.80822 22.6677L3.00048 22.5295V19.2208L4.80797 19.0828C5.35534 19.0411 5.81134 18.6472 5.93222 18.1117C6.24497 16.7263 6.78946 15.4132 7.55071 14.2086C7.84396 13.7446 7.80021 13.1435 7.44259 12.7268L6.26084 11.3496L8.60033 9.0101L9.97745 10.1918C10.3941 10.5492 10.9951 10.5935 11.4592 10.3C12.6642 9.5386 13.9773 8.99423 15.3621 8.68185C15.8976 8.56098 16.2916 8.10498 16.3334 7.55773L16.4713 5.75011H19.7799L19.9179 7.55811C19.9597 8.10536 20.3537 8.56135 20.8893 8.68223C22.2743 8.99473 23.5873 9.5391 24.792 10.3003C25.2561 10.5938 25.8571 10.5498 26.2739 10.1923L27.651 9.01048L29.9905 11.35L28.8088 12.7271C28.4513 13.1437 28.4074 13.7448 28.7006 14.2088C29.4619 15.4137 30.0064 16.7268 30.3189 18.1118C30.4397 18.6473 30.8957 19.0413 31.4431 19.0831L33.2507 19.2211V22.5295ZM60.1255 32.2504C61.1594 32.2504 62.0005 33.0915 62.0005 34.1254C62.0005 35.1592 61.1594 36.0004 60.1255 36.0004C59.0916 36.0004 58.2505 35.1592 58.2505 34.1254C58.2505 33.0915 59.0916 32.2504 60.1255 32.2504Z" fill="white"/>
</g>
<defs>
<clipPath id="clip0_79_110">
<rect width="64" height="64" fill="white" transform="translate(0.5)"/>
</clipPath>
</defs>
</svg>
